<?xml version="1.0" encoding="UTF-8" standalone="no"?>
<svg width="1724px" height="329px" viewBox="0 0 1724 329" version="1.1" xmlns="http://www.w3.org/2000/svg" xmlns:xlink="http://www.w3.org/1999/xlink">
    <!-- Generator: Sketch 3.8.1 (29687) - http://www.bohemiancoding.com/sketch -->
    <title>Slice 1</title>
    <desc>Created with Sketch.</desc>
    <defs></defs>
    <g id="Page-1" stroke="none" stroke-width="1" fill="none" fill-rule="evenodd">
        <path d="M5,37 C-2,29 -8.34887715e-14,17 9,10 C17,4 29,6 36,15 L95,97 C101,105 100,117 91,124 C82,130 71,128 64,119 L5,37 L5,37 Z M165,257 C158,249 160,237 169,231 C177,224 189,226 195,235 L211,256 C224,274 243,286 264,289 C284,293 306,289 324,276 C342,263 354,244 357,223 C361,203 357,181 344,163 L344,163 L263,51 L167,163 L121,216 L35,316 C28,324 16,325 8,318 C-8.8817842e-14,312 -8.8817842e-14,300 6,292 L92,191 L138,138 L249,8 C250,7 251,6 253,5 C261,-2 273,-1.24344979e-14 280,9 L375,141 L375,141 L375,141 C394,168 400,200 395,230 C390,260 373,288 346,307 C319,326 287,332 257,327 C227,322 199,305 180,278 L165,257 L165,257 Z M654,68 C683,68 700,77 715,92 C720,97 724,97 727,97 C736,97 744,90 744,81 C744,76 741,72 740,70 C722,47 692,34 654,34 C606,34 568,56 568,102 C568,194 716,171 716,229 C716,259 688,269 656,269 C625,269 602,259 585,242 C580,237 576,236 573,236 C564,236 556,243 556,252 C556,256 557,259 560,263 C575,282 610,304 656,304 C710,304 752,281 752,229 C752,139 604,161 604,102 C604,76 629,68 654,68 L654,68 Z M796,169 C796,263 843,304 917,304 C967,304 997,281 1005,273 C1008,269 1011,266 1011,260 C1011,251 1004,243 995,243 C990,243 988,245 985,247 C969,259 950,271 917,271 C864,271 832,235 832,179 L997,179 C1019,179 1019,160 1019,143 C1019,105 1002,34 912,34 C839,34 796,82 796,169 L796,169 Z M984,148 L832,148 C836,98 863,66 912,66 C970,66 984,107 984,148 L984,148 Z M1169,67 C1210,67 1235,91 1235,129 L1235,144 L1156,144 C1095,144 1057,174 1057,224 C1057,275 1095,304 1155,304 C1188,304 1221,290 1235,264 L1235,284 C1235,293 1243,301 1253,301 C1262,301 1270,293 1270,284 L1270,129 C1270,72 1234,34 1169,34 C1121,34 1091,53 1075,78 C1074,81 1073,84 1073,88 C1073,97 1080,104 1089,104 C1094,104 1098,102 1103,96 C1121,76 1139,67 1169,67 L1169,67 Z M1158,272 C1114,272 1094,253 1094,224 C1094,191 1119,176 1156,176 L1235,176 L1235,200 C1235,247 1197,272 1158,272 L1158,272 Z M1618,34 C1575,34 1550,51 1536,73 C1522,50 1493,34 1447,34 C1410,34 1383,52 1373,73 L1373,55 C1373,45 1366,37 1355,37 C1345,37 1337,45 1337,55 L1337,283 C1337,293 1345,301 1355,301 C1366,301 1373,293 1373,283 L1373,144 C1373,97 1390,66 1443,66 C1498,66 1512,96 1512,140 L1512,283 C1512,293 1520,301 1530,301 C1540,301 1548,293 1548,283 L1548,133 C1548,92 1570,66 1618,66 C1673,66 1688,96 1688,140 L1688,283 C1688,293 1696,301 1706,301 C1716,301 1724,293 1724,283 L1724,133 C1724,85 1705,34 1618,34 L1618,34 Z" id="Shape" fill="#697385"></path>
    </g>
</svg>