<?xml version="1.0" encoding="UTF-8" standalone="no"?>
<svg width="2360px" height="450px" viewBox="0 0 2360 450" version="1.1" xmlns="http://www.w3.org/2000/svg" xmlns:xlink="http://www.w3.org/1999/xlink">
    <!-- Generator: Sketch 39.1 (31720) - http://www.bohemiancoding.com/sketch -->
    <title>Logo gradient light</title>
    <desc>Created with Sketch.</desc>
    <defs></defs>
    <g id="Header-Dropdowns" stroke="none" stroke-width="1" fill="none" fill-rule="evenodd">
        <g id="Logo-gradient-light">
            <g id="Layer_x0020_1">
                <path d="M2213,44 C2154,44 2120,71 2100,101 C2084,68 2040,44 1977,44 C1927,44 1891,71 1877,101 L1877,74 C1877,61 1867,51 1854,51 C1841,51 1831,61 1831,74 L1831,387 C1831,400 1841,410 1854,410 C1867,410 1877,400 1877,387 L1877,197 C1877,134 1901,91 1974,91 C2047,91 2067,131 2067,191 L2067,387 C2067,400 2077,410 2094,410 C2107,410 2117,400 2117,387 L2117,181 C2117,124 2147,91 2213,91 C2287,91 2310,131 2310,191 L2310,387 C2310,400 2320,410 2333,410 C2347,410 2360,400 2360,387 L2360,181 C2360,118 2333,44 2213,44 L2213,44 L2213,44 Z M1585,370 C1525,370 1495,347 1495,307 C1495,261 1531,241 1581,241 L1688,241 L1688,274 C1688,337 1638,370 1585,370 L1585,370 L1585,370 Z M1598,91 C1655,91 1688,124 1688,177 L1688,197 L1581,197 C1498,197 1445,237 1445,307 C1445,377 1498,417 1578,417 C1625,417 1671,397 1688,360 L1688,387 C1688,400 1701,410 1714,410 C1728,410 1738,400 1738,387 L1738,177 C1738,98 1688,44 1598,44 C1535,44 1492,74 1472,108 C1468,111 1468,114 1468,121 C1468,131 1478,141 1488,141 C1495,141 1502,141 1508,131 C1535,104 1558,91 1598,91 L1598,91 L1598,91 Z M1345,201 L1139,201 C1142,134 1179,91 1245,91 C1325,91 1345,148 1345,201 L1345,201 L1345,201 Z M1089,231 C1089,360 1152,417 1255,417 C1322,417 1362,384 1375,374 C1378,367 1382,364 1382,354 C1382,344 1372,334 1362,334 C1355,334 1352,334 1348,337 C1325,354 1299,370 1255,370 C1182,370 1139,321 1139,244 L1362,244 C1395,244 1395,217 1395,197 C1395,144 1368,44 1245,44 C1146,44 1089,111 1089,231 L1089,231 L1089,231 Z M896,94 C936,94 959,104 979,124 C986,131 989,134 996,134 C1006,134 1016,124 1016,111 C1016,104 1012,98 1012,94 C989,64 946,48 896,48 C830,48 776,74 776,141 C776,267 979,234 979,314 C979,354 943,367 899,367 C856,367 823,354 800,330 C793,324 786,324 783,324 C770,324 760,334 760,344 C760,350 763,354 766,360 C786,384 836,414 899,414 C969,414 1029,384 1029,314 C1029,191 826,221 826,141 C826,104 859,94 896,94 L896,94 L896,94 Z" id="Shape" fill="#161B28"></path>
                <path d="M4,51 C-2,38 1,21 11,14 C24,4 41,8 48,21 L131,131 C138,144 138,161 124,167 C114,177 98,174 88,164 L4,51 L4,51 Z M231,314 C241,307 257,311 267,321 L287,350 C307,374 334,390 360,397 C387,400 417,394 444,377 C467,360 484,334 490,304 C493,277 487,247 470,224 L360,71 L227,221 L167,294 L48,434 C38,444 21,444 11,437 C1,427 -2,410 8,397 L128,261 L187,187 L340,11 C340,8 344,8 347,4 C357,-2 374,1 384,11 L513,191 C540,231 547,274 540,314 C533,357 510,394 474,420 C437,447 394,454 350,447 C311,440 271,417 244,380 L224,350 C217,340 217,324 231,314 Z" id="Shape" fill="#5271D5"></path>
            </g>
        </g>
    </g>
</svg>